<?xml version="1.0" encoding="UTF-8"?>
<svg id="Layer_1" data-name="Layer 1" xmlns="http://www.w3.org/2000/svg" viewBox="0 0 1024 1024">
  <defs>
    <style>
      .cls-1 {
        stroke-width: 10.83px;
      }

      .cls-1, .cls-2, .cls-3 {
        fill: none;
      }

      .cls-1, .cls-2, .cls-3, .cls-4 {
        stroke: yellow;
      }

      .cls-1, .cls-3, .cls-4 {
        stroke-linecap: round;
        stroke-linejoin: round;
      }

      .cls-2 {
        stroke-miterlimit: 10;
        stroke-width: 16.48px;
      }

      .cls-3 {
        stroke-width: 8.86px;
      }

      .cls-4 {
        stroke-width: 16.67px;
      }
    </style>
  </defs>
  <circle class="cls-2" cx="512" cy="512" r="383.3"/>
  <g>
    <path class="cls-4" d="m201.05,521.72h119.09m378.91-5.41h113.67m-544.01-213.82l90.03,88.34m378.2-93.75l-90.02,91.24m-145.45-191.38l.72,133.78"/>
    <path class="cls-1" d="m510.59,839.31c-20.9.57-42.96-14.66-47.03-32.96h91.69c-2.58,12.52-18.81,32.25-44.65,32.96Zm119.53-246.47c-21.3,33.29-40.54,67.65-54.35,104.8-3.15,8.48-5.49,17.26-8.31,26.27-5.96-5.5-13.66-4.7-21.19-4.7-26.33,0-52.65-.11-78.98.1-4.75.04-9.5,1.35-14.61,2.13-1.69-4.43-3.65-9.88-5.83-15.26-13.42-33.19-30.51-64.53-48.04-95.66-7.3-12.97-15.72-25.51-21.3-39.2-20.77-50.89-15.12-99.26,17.64-143.56,23.01-31.12,54.56-49.26,92.65-55.27,75.56-11.94,147.64,38.66,162.57,114.04,7.53,38.01.68,73.59-20.25,106.31Zm-73.16,162.99h-97.43c-5.95,0-10.83-4.87-10.83-10.83h0c0-5.95,4.87-10.83,10.83-10.83h97.43c5.95,0,10.83,4.87,10.83,10.83h0c0,5.95-4.87,10.83-10.83,10.83Zm1.35,36.54h-97.43c-5.95,0-10.83-4.87-10.83-10.83h0c0-5.95,4.87-10.83,10.83-10.83h97.43c5.95,0,10.83,4.87,10.83,10.83h0c0,5.95-4.87,10.83-10.83,10.83Z"/>
    <polygon class="cls-3" points="471.7 554.44 558.31 421.57 513.13 535.46 558.31 516.48 471.7 665.16 509.36 548.11 471.7 554.44"/>
  </g>
</svg>