<?xml version="1.0" encoding="UTF-8"?>
<svg id="Layer_1" data-name="Layer 1" xmlns="http://www.w3.org/2000/svg" viewBox="0 0 1024 1024">
  <defs>
    <style>
      .cls-1, .cls-2 {
        fill: none;
      }

      .cls-2 {
        stroke-width: 16.48px;
      }

      .cls-2, .cls-3 {
        stroke: #000;
        stroke-miterlimit: 10;
      }

      .cls-3 {
        stroke-width: 2.29px;
      }
    </style>
  </defs>
  <circle class="cls-2" cx="512" cy="512" r="383.3"/>
  <g>
    <path class="cls-1" d="m622.66,605.48c0-10.71-6.57-18.63-16.67-20.13-4.26-.63-8.69-.04-13.01-.33-6.05-.42-9.62,3.86-9.49,9.38.25,10.25.08,20.51.07,30.76,0,.89-.08,1.78-.13,2.63h-7.18v-2.91c0-14.22.06-28.43-.02-42.65-.07-12-8.49-20.34-20.42-20.4-3.1-.01-6.21,0-9.31,0-6.45,0-9.4,2.92-9.4,9.35,0,17.95,0,35.89,0,53.84,0,.9,0,1.8,0,2.81h-7.36v-2.95c0-18.1.03-36.2,0-54.3-.02-11.87-8.42-20.33-20.15-20.4-3.1-.02-6.23.21-9.31-.05-6.3-.52-9.82,4.06-9.77,9.63.22,21.75.09,43.51.09,65.26,0,.9,0,1.81,0,2.76h-7.35v-3.14c0-40.79,0-81.57,0-122.36,0-1.24,0-2.49-.07-3.73-.93-14.73-17.71-23.15-30.02-15.05-6.21,4.09-9.06,9.95-9.06,17.34.01,53.42,0,106.84,0,160.26h178.58c.16-18.54.01-37.09,0-55.63Z"/>
    <path class="cls-1" d="m389.59,640.53c8.45.33,16.21,3.04,23.2,7.46,6.34,4,12.29,8.64,18.33,13.12h5.66c0-53.3.02-106.6-.01-159.9,0-11.29,4.74-19.83,14.69-25.1,17.29-9.14,38.61,3.35,39.03,22.94.31,14.36.08,28.74.09,43.11,0,.84,0,1.68,0,2.69,7.5-3.16,15.13-2.2,22.65-1.61,8.6.68,15.09,5.21,19.74,12.41.54.84,1.04,1.71,1.7,2.79,4.14-3.96,9.22-4.31,14.42-4.01,5.08.3,10.39-.06,15.19,1.31,11.02,3.16,17.19,11.07,18.99,22.4.07.44.17.88.27,1.4,7.9-2.93,16-2.31,23.92-1.28,12.94,1.68,22.36,13.02,22.37,26.06.01,18.92.2,37.85.12,56.77h107.16v-332.56h-456.49v332.56h79.68c.62-2.01,1.53-4.03,2.78-6.04,6.07-9.76,14.75-15,26.54-14.54Zm149.76-91.84c-13.37-7.72-26.59-15.35-39.97-23.07,1.41-2.44,2.71-4.69,4.12-7.13,13.35,7.72,26.54,15.34,39.95,23.1-1.43,2.48-2.69,4.68-4.1,7.11Zm13.97-44.58h-45.91v-7.92h45.91v7.92Zm-9.88-45.39c-13.33,7.73-26.56,15.39-40,23.19-1.44-2.49-2.71-4.69-4.1-7.1,13.3-7.71,26.54-15.38,39.99-23.18,1.37,2.36,2.67,4.61,4.11,7.1Zm-38.5-38.43c2.37,1.35,4.62,2.63,7.12,4.05-7.71,13.37-15.37,26.63-23.13,40.09-2.47-1.42-4.67-2.69-7.11-4.09,7.71-13.36,15.34-26.57,23.12-40.05Zm-45.3-9.76h7.93v45.96h-7.93v-45.96Zm-71.73,138.15c-1.4-2.42-2.71-4.69-4.1-7.1,13.4-7.76,26.66-15.44,40.18-23.28,1.41,2.44,2.68,4.65,4.09,7.08-13.39,7.77-26.71,15.49-40.17,23.29Zm34.36-128.4c7.83,13.55,15.47,26.78,23.2,40.17-2.34,1.39-4.57,2.72-7.09,4.22-7.74-13.44-15.42-26.77-23.21-40.31,2.37-1.36,4.62-2.65,7.11-4.08Zm-34.36,31.35c13.48,7.81,26.78,15.51,40.22,23.3-1.4,2.42-2.7,4.67-4.1,7.1-13.52-7.83-26.82-15.54-40.24-23.3,1.42-2.44,2.73-4.69,4.12-7.09Zm-14,44.58h46.21v7.95h-46.21v-7.95Z"/>
    <path class="cls-1" d="m444.08,671.92c0,.93.05,1.87-.05,2.79-.32,2.91-3.32,4.3-5.69,2.59-1.06-.76-1.95-1.77-2.9-2.68-1.42-1.35-2.85-2.68-4.3-4-21.43,0-42.87,0-64.3,0,.49,3.11,1.79,6.05,3.51,8.87,4,6.58,9.27,12.1,15.06,17.04,13.38,11.4,24.84,24.52,35.18,38.67,6.82,9.34,13.58,18.73,20.54,27.96,11.33,15.04,25.48,26.22,43.95,31.18,14.44,3.87,29.16,5.34,44.03,3.88,31.74-3.1,56.53-18.1,73.77-44.91,13.2-20.51,18.69-43.61,19.36-67.68.14-5.01.23-10.02.31-15.03-59.49,0-118.98,0-178.47,0v1.3Z"/>
    <path class="cls-1" d="m408.72,654.15c-6.18-3.35-12.6-5.96-19.77-6.27-8.97-.39-17.57,5.18-20.91,13.23h51.58c-3.47-2.54-7.08-4.89-10.9-6.96Z"/>
    <path class="cls-1" d="m261.33,483.98c-6.17,0-11.48,5.09-11.38,10.9.1,5.94,5.3,10.81,11.5,10.77,6.13-.04,11.1-4.84,11.12-10.73.02-6.06-4.99-10.94-11.24-10.94Z"/>
    <path class="cls-3" d="m622.24,685.64c-.67,24.06-6.16,47.17-19.36,67.68-17.25,26.81-42.04,41.8-73.77,44.91-14.87,1.45-29.6-.01-44.03-3.88-18.47-4.96-32.63-16.14-43.95-31.18-6.96-9.24-13.71-18.62-20.54-27.96-10.34-14.15-21.79-27.27-35.18-38.67-5.79-4.94-11.06-10.45-15.06-17.04-1.72-2.83-3.02-5.77-3.51-8.87h-7.41c.5,4.1,2.04,8.18,4.37,12.21,4.61,7.99,11.12,14.36,18.01,20.28,11.37,9.77,21.23,20.89,30.2,32.85,8.99,11.98,17.67,24.2,26.88,36,8.22,10.54,18.41,18.88,30.67,24.43,21.61,9.78,44.5,11.5,67.46,8.22,31.66-4.51,55.6-21.75,72.37-48.83,14.02-22.64,19.85-47.75,20.32-74.08.07-3.7.11-7.39.15-11.09-2.44,0-4.87,0-7.31,0-.07,5.01-.17,10.02-.31,15.03Z"/>
    <path d="m388.95,647.88c7.17.31,13.58,2.91,19.77,6.27,3.82,2.07,7.44,4.42,10.9,6.96h11.51c-6.04-4.48-11.99-9.12-18.33-13.12-6.99-4.41-14.75-7.13-23.2-7.46-11.79-.46-20.47,4.78-26.54,14.54-1.25,2.01-2.16,4.03-2.78,6.04h7.77c3.35-8.04,11.95-13.61,20.91-13.23Z"/>
    <path class="cls-3" d="m629.81,604.34c0-13.04-9.43-24.38-22.37-26.06-7.92-1.03-16.01-1.64-23.92,1.28-.1-.52-.2-.96-.27-1.4-1.79-11.32-7.97-19.23-18.99-22.4-4.8-1.38-10.1-1.02-15.19-1.31-5.2-.31-10.27.05-14.42,4.01-.65-1.08-1.15-1.95-1.7-2.79-4.65-7.21-11.14-11.73-19.74-12.41-7.51-.59-15.15-1.55-22.65,1.61,0-1.01,0-1.85,0-2.69-.01-14.37.22-28.75-.09-43.11-.43-19.59-21.75-32.08-39.03-22.94-9.95,5.26-14.69,13.81-14.69,25.1.03,53.3.01,106.6.01,159.9h7.3c0-53.42,0-106.84,0-160.26,0-7.39,2.85-13.25,9.06-17.34,12.3-8.1,29.09.32,30.02,15.05.08,1.24.07,2.48.07,3.73,0,40.79,0,81.57,0,122.36v3.14h7.35c0-.95,0-1.86,0-2.76,0-21.75.13-43.51-.09-65.26-.06-5.57,3.47-10.15,9.77-9.63,3.08.25,6.21.03,9.31.05,11.73.07,20.13,8.53,20.15,20.4.03,18.1,0,36.2,0,54.3v2.95h7.36c0-1.01,0-1.91,0-2.81,0-17.95,0-35.89,0-53.84,0-6.43,2.95-9.35,9.4-9.35,3.1,0,6.21-.01,9.31,0,11.93.05,20.35,8.39,20.42,20.4.08,14.22.02,28.43.02,42.65v2.91h7.18c.04-.85.13-1.74.13-2.63,0-10.26.19-20.51-.07-30.76-.14-5.52,3.43-9.8,9.49-9.38,4.33.3,8.75-.3,13.01.33,10.1,1.5,16.66,9.42,16.67,20.13.02,18.54.16,37.09,0,55.63h7.26c.08-18.92-.1-37.85-.12-56.77Z"/>
    <path d="m435.43,674.62c.95.91,1.84,1.92,2.9,2.68,2.38,1.71,5.37.32,5.69-2.59.1-.92.05-1.86.05-2.79v-1.3h-12.95c1.45,1.31,2.88,2.64,4.3,4Z"/>
    <path d="m420.13,496.2h-46.21v7.95h46.21v-7.95Z"/>
    <path d="m467.57,410.53h-7.93v45.96h7.93v-45.96Z"/>
    <path d="m507.42,504.11h45.91v-7.92h-45.91v7.92Z"/>
    <path d="m445.47,460.44c-7.73-13.39-15.37-26.61-23.2-40.17-2.48,1.42-4.74,2.72-7.11,4.08,7.8,13.54,15.47,26.87,23.21,40.31,2.52-1.5,4.76-2.83,7.09-4.22Z"/>
    <path d="m428.13,474.92c-13.44-7.78-26.74-15.49-40.22-23.3-1.39,2.4-2.7,4.65-4.12,7.09,13.41,7.77,26.71,15.47,40.24,23.3,1.4-2.42,2.7-4.68,4.1-7.1Z"/>
    <path d="m383.8,541.58c1.39,2.41,2.7,4.68,4.1,7.1,13.46-7.81,26.78-15.53,40.17-23.29-1.41-2.44-2.68-4.64-4.09-7.08-13.52,7.83-26.79,15.52-40.18,23.28Z"/>
    <path d="m512.06,424.34c-2.5-1.42-4.75-2.71-7.12-4.05-7.78,13.48-15.41,26.69-23.12,40.05,2.44,1.41,4.64,2.67,7.11,4.09,7.76-13.46,15.42-26.72,23.13-40.09Z"/>
    <path d="m499.38,525.61c13.38,7.72,26.6,15.36,39.97,23.07,1.4-2.43,2.67-4.63,4.1-7.11-13.41-7.75-26.59-15.38-39.95-23.1-1.41,2.44-2.71,4.69-4.12,7.13Z"/>
    <path d="m503.44,481.91c13.45-7.8,26.67-15.46,40-23.19-1.44-2.49-2.75-4.74-4.11-7.1-13.46,7.8-26.69,15.47-39.99,23.18,1.39,2.41,2.67,4.61,4.1,7.1Z"/>
    <path d="m771.29,341.27c.02-12.37-10.58-22.32-22.29-22.28-80.75.24-161.5.12-242.25.12-80.55,0-161.1-.03-241.66.09-3.65,0-7.61.55-10.87,2.05-8.77,4.03-12.58,11.34-12.58,21.01.06,101.61.03,203.22.04,304.82,0,.89,0,1.78.06,2.67.89,12.53,9.85,20.88,22.4,20.88h95.27c-.38-3.16-.13-6.33.85-9.51h-79.68v-332.56h456.49v332.56h-107.16c-.01,3.17-.04,6.34-.07,9.51,39.69,0,79.39,0,119.08,0,13,0,22.25-9.21,22.25-22.15,0-102.4-.08-204.8.1-307.2Zm-509.85,164.39c-6.2.04-11.4-4.83-11.5-10.77-.1-5.81,5.21-10.9,11.38-10.9s11.26,4.88,11.24,10.94c-.02,5.89-5,10.68-11.12,10.73Z"/>
    <path d="m436.78,665.68v-4.57h-5.66c.68.5,1.36,1.01,2.04,1.51,1.1.8,2.09,1.77,3.61,3.07Z"/>
    <path d="m366.99,664.42c.25-1.14.61-2.25,1.05-3.32h-7.77c-.98,3.18-1.23,6.35-.85,9.51h7.41c-.32-1.99-.31-4.05.16-6.19Z"/>
    <path d="m444.08,670.62c0-3.17,0-6.34,0-9.51h-7.3v4.57c-1.52-1.3-2.51-2.26-3.61-3.07-.68-.5-1.36-1-2.04-1.51h-11.51c4.01,2.94,7.82,6.15,11.51,9.51h12.95Z"/>
    <path d="m622.66,661.11c-.03,3.17-.06,6.34-.11,9.51,2.44,0,4.87,0,7.31,0,.03-3.17.05-6.34.07-9.51h-7.26Z"/>
  </g>
</svg>