<?xml version="1.0" encoding="UTF-8"?>
<svg id="Layer_1" data-name="Layer 1" xmlns="http://www.w3.org/2000/svg" viewBox="0 0 1024 1024">
  <defs>
    <style>
      .cls-1 {
        stroke-linecap: round;
        stroke-linejoin: round;
      }

      .cls-1, .cls-2 {
        stroke-width: 14.6px;
      }

      .cls-1, .cls-2, .cls-3, .cls-4 {
        fill: none;
        stroke: orange;
      }

      .cls-2, .cls-3, .cls-4 {
        stroke-miterlimit: 10;
      }

      .cls-3 {
        stroke-width: 16.48px;
      }

      .cls-4 {
        stroke-width: 11.36px;
      }
    </style>
  </defs>
  <circle class="cls-3" cx="484.41" cy="515.96" r="383.3"/>
  <g>
    <rect class="cls-2" x="244.33" y="304.21" width="480.16" height="429.88" rx="40.2" ry="40.2"/>
    <line class="cls-2" x1="245.19" y1="406.26" x2="723.37" y2="406.26"/>
    <line class="cls-1" x1="329.5" y1="267.71" x2="329.5" y2="342.33"/>
    <line class="cls-1" x1="384.65" y1="267.71" x2="384.65" y2="342.33"/>
    <line class="cls-1" x1="577.69" y1="267.71" x2="577.69" y2="342.33"/>
    <line class="cls-1" x1="636.09" y1="267.71" x2="636.09" y2="342.33"/>
    <rect class="cls-4" x="286.51" y="448.58" width="394.19" height="238.46" rx="21.95" ry="21.95"/>
    <path d="m379.57,558.63s69.77,65.61,69.77,65.61c0,0-19.65.69-19.64.68,3.14-3.74,6.16-7.23,9.28-10.77,21.7-24.57,44.47-48.19,68.81-70.18,21.04-18.83,43.09-36.84,68.04-50.36,8.39-4.48,17.24-8.37,26.68-10.8,2.17-.56,4.38.75,4.94,2.92.54,2.08-.65,4.21-2.66,4.87-8.3,2.85-16.23,7.07-23.79,11.91-37.94,25.18-68.6,59.96-97.68,94.7-11.51,14.06-22.83,28.54-33.41,43.27,0,0-1.73,1.82-1.74,1.82-4.91,5.27-13.7,4.69-17.91-1.14,0,0-56.76-77.14-56.76-77.14-2.83-4.01,2.42-8.69,6.07-5.38h0Z"/>
  </g>
</svg>