<?xml version="1.0" encoding="UTF-8"?>
<svg id="Layer_1" data-name="Layer 1" xmlns="http://www.w3.org/2000/svg" viewBox="0 0 1024 1024">
  <defs>
    <style>
      .cls-1 {
        stroke-width: 12.01px;
      }

      .cls-1, .cls-2, .cls-3 {
        fill: none;
        stroke: #000;
        stroke-miterlimit: 10;
      }

      .cls-2 {
        stroke-width: 9.25px;
      }

      .cls-3 {
        stroke-width: 16.48px;
      }
    </style>
  </defs>
  <g>
    <g>
      <path class="cls-2" d="m592.83,559.48c.01-10.28.5-20.57.21-30.84-.43-15.66-13.05-27.55-28.71-27.56-20.19-.02-40.38,0-60.57,0-16.7,0-33.4-.03-50.1,0-7.02.01-13.14,2.27-17.95,7.57-5.78,6.37-9.3,13.67-9.27,22.47.02,4.34-.22,8.68-.22,13.02,0,8.23,0,16.45,0,24.68l166.61.45c0-3.26,0-6.51,0-9.77Z"/>
      <path class="cls-2" d="m490.08,489.94c10.72,5.9,21.89,5.79,32.9.5,10.01-4.81,17.54-12.3,22.77-22.07,2.97-5.55,5.01-11.45,5.02-17.79.03-20.15-9.39-34.94-26.48-44.92-8.36-4.89-17.43-5.8-26.75-2.59-18.23,6.28-32.88,26.71-32.97,49.24.85,15.16,9.5,28.83,25.51,37.64Z"/>
    </g>
    <rect class="cls-2" x="272.71" y="571.11" width="480.05" height="185.08" rx="24.15" ry="24.15"/>
    <rect class="cls-1" x="275.03" y="258.21" width="471.38" height="81.55" rx="21.45" ry="21.45"/>
    <rect class="cls-1" x="318.98" y="339.76" width="385.2" height="229.04"/>
    <line class="cls-1" x1="272.71" y1="595.26" x2="752.76" y2="595.26"/>
  </g>
  <circle class="cls-3" cx="512" cy="512" r="383.3"/>
</svg>