<?xml version="1.0" encoding="UTF-8"?>
<svg id="Layer_1" data-name="Layer 1" xmlns="http://www.w3.org/2000/svg" viewBox="0 0 1024 1024">
  <defs>
    <style>
      .cls-1 {
        stroke-width: 5.99px;
      }

      .cls-1, .cls-2, .cls-3 {
        stroke-linecap: round;
        stroke-linejoin: round;
      }

      .cls-1, .cls-2, .cls-3, .cls-4 {
        fill: none;
        stroke: #000;
      }

      .cls-2 {
        stroke-width: 6.65px;
      }

      .cls-3 {
        stroke-width: 5.77px;
      }

      .cls-4 {
        stroke-miterlimit: 10;
        stroke-width: 16.48px;
      }
    </style>
  </defs>
  <circle class="cls-4" cx="512" cy="512" r="383.3"/>
  <g>
    <polygon class="cls-3" points="409.93 280.02 445.86 637.97 501.75 673.9 508.4 845.56 501.75 673.9 618.85 656.6 550.99 265.38 409.93 280.02"/>
    <polyline class="cls-3" points="618.85 656.6 625.5 824.27 508.4 845.56"/>
    <path class="cls-2" d="m508.4,845.56l-59.88-46.57-2.66-161.01-35.93-357.95s-3.99-67.84,55.89-73.19c74.52-6.65,85.16,58.55,85.16,58.55"/>
    <polygon class="cls-3" points="536.35 280.02 436.55 292 508.4 657.93 601.55 643.29 536.35 280.02"/>
    <polygon points="453.85 309.29 520.38 640.63 535.02 636.64 468.48 305.3 453.85 309.29"/>
    <polygon points="480.11 304 546.64 635.34 561.28 631.35 494.75 300.01 480.11 304"/>
    <polygon points="506.72 301.34 573.26 632.68 587.89 628.68 521.36 297.35 506.72 301.34"/>
    <path class="cls-1" d="m427.23,278.69s-4.48-51.34,43.51-56.74c59.73-6.72,64.27,43.43,64.27,43.43"/>
  </g>
</svg>