<?xml version="1.0" encoding="UTF-8"?>
<svg id="Layer_1" data-name="Layer 1" xmlns="http://www.w3.org/2000/svg" viewBox="0 0 1024 1024">
  <defs>
    <style>
      .cls-1 {
        stroke-width: 9.53px;
      }

      .cls-1, .cls-2, .cls-3, .cls-4, .cls-5, .cls-6 {
        fill: none;
        stroke: orange;
      }

      .cls-1, .cls-2, .cls-3, .cls-5, .cls-6 {
        stroke-linecap: round;
        stroke-linejoin: round;
      }

      .cls-2 {
        stroke-width: 10.19px;
      }

      .cls-3 {
        stroke-width: 9.1px;
      }

      .cls-4 {
        stroke-miterlimit: 10;
        stroke-width: 16.48px;
      }

      .cls-5 {
        stroke-width: 8.46px;
      }

      .cls-6 {
        stroke-width: 7.8px;
      }
    </style>
  </defs>
  <circle class="cls-4" cx="512" cy="512" r="383.3"/>
  <g>
    <polyline class="cls-5" points="649.33 549.6 785.08 549.99 785.08 375.72 315.88 375.72 244.39 375.72 244.39 549.99 379.15 549.86"/>
    <polyline class="cls-5" points="625.61 375.89 608.09 299.09 302.35 299.09 315.88 375.72"/>
    <rect class="cls-5" x="277.45" y="551.15" width="41.23" height="134.59"/>
    <rect class="cls-5" x="251" y="685.74" width="94.91" height="21.01"/>
    <rect class="cls-2" x="231.55" y="710.64" width="134.59" height="22.61"/>
    <rect class="cls-5" x="710.79" y="551.15" width="41.23" height="134.59"/>
    <rect class="cls-5" x="684.34" y="685.74" width="94.91" height="21.01"/>
    <rect class="cls-1" x="664.89" y="710.64" width="134.59" height="19.79"/>
    <rect class="cls-3" x="665.6" y="378.13" width="118.37" height="85.89"/>
    <rect class="cls-5" x="690.56" y="415.78" width="64.57" height="21.78"/>
    <rect class="cls-5" x="280.56" y="414.23" width="45.9" height="17.12"/>
    <rect class="cls-5" x="279.01" y="450.01" width="49.79" height="21.01"/>
    <g>
      <path class="cls-5" d="m339.61,379.84s56.88,134.74,39.54,170.02c-13.74,27.97-11.45,90.76,18.11,92.31,19.05,1,33.45-18.67,33.45-34.23,0-15.56-3.11-28.01-3.11-28.01l254.4,3.89s2.33,44.35-17.12,56.01c-19.45,11.67-264.51,3.89-264.51,3.89"/>
      <path class="cls-5" d="m607.98,375.45s34.55,72.34,42.62,206.49"/>
    </g>
    <g>
      <path d="m399.43,579.81c11.01-12.56,22.49-24.71,34.4-36.43s24.28-23.01,37.04-33.82c3.16-2.68,6.35-5.33,9.56-7.95,1.61-1.31,3.22-2.61,4.84-3.91.41-.33.82-.65,1.23-.98,0,0,.54-.43.24-.19s.24-.18.24-.18c.79-.59,1.6-1.15,2.46-1.63.24-.14.49-.26.74-.39.01,0,.63-.28.25-.13s.25-.08.27-.09c.27-.08.53-.16.8-.23,0,0,.67-.16.29-.09s.34-.03.35-.03c.62-.03,1.26-.03,1.87.05-.48-.06.59.14.74.17.54.12,1.08.27,1.61.44,1.07.32,2.12.7,3.17,1.08,4.09,1.46,8.17,2.93,12.24,4.43,16.44,6.05,32.75,12.46,48.91,19.21,3.85,1.61,7.56,3.19,11.63,4.94s7.96,3.46,11.92,5.22c8,3.55,15.96,7.2,23.88,10.92,1.96.92,3.92,1.85,5.88,2.79s4.66.62,5.78-1.52c1-1.88.61-4.77-1.52-5.78-16.09-7.68-32.35-15-48.77-21.96-16.54-7.01-33.22-13.68-50.05-19.97-4.22-1.57-8.44-3.13-12.68-4.65s-8.64-3.5-13.24-3.82c-4.92-.34-8.99,2.26-12.68,5.17-3.3,2.59-6.54,5.26-9.77,7.93-13.12,10.86-25.84,22.21-38.11,34.02s-23.96,23.95-35.25,36.58c-1.43,1.6-2.85,3.21-4.26,4.82s-1.76,4.37,0,5.98c1.6,1.47,4.42,1.78,5.98,0h0Z"/>
      <path d="m533.69,495.66c12.44-6.18,24.47-13.17,35.97-20.95,2.75-1.86,5.4-3.94,8.23-5.68.3-.18.6-.36.91-.52.16-.08.97-.43.31-.18.39-.15.78-.24,1.18-.35-.64.17-.11,0,.1,0,.13,0,1.35.21.52.01.4.1.8.21,1.18.36-.6-.23.04.03.13.08.49.28.99.54,1.47.85,2.95,1.88,5.75,4.04,8.6,6.07s5.91,4.21,8.87,6.31c6.72,4.78,13.44,9.56,20.16,14.34,1.81,1.29,4.78.38,5.78-1.52,1.15-2.18.41-4.41-1.52-5.78-6.18-4.4-12.36-8.8-18.55-13.2-6.12-4.35-12.16-8.85-18.37-13.06-3.27-2.21-7.07-3.58-11.02-2.53-3.44.92-6.29,3.38-9.16,5.37-5.77,4-11.67,7.8-17.69,11.4-6.97,4.16-14.1,8.05-21.37,11.66-1.98.99-2.7,3.95-1.52,5.78,1.31,2.03,3.66,2.57,5.78,1.52h0Z"/>
      <path d="m412.37,505.38c4.64-1.15,9.14-2.85,13.4-5.01,2.1-1.06,4.13-2.25,6.08-3.56,1.85-1.24,3.58-2.68,5.56-3.72.19-.1.38-.2.57-.29-.35.14-.29.12.16-.05.5-.15,1-.28,1.51-.41.5-.09.5-.09,0-.02.25-.03.5-.04.75-.05.51-.02,1,.01,1.51.03.5.05.5.05,0-.01.25.04.5.09.75.14.5.11,1,.25,1.48.4.15.05,1.59.61.82.28.43.19.85.39,1.27.61.91.47,1.79,1,2.65,1.57.47.31.92.64,1.37.96.4.3.45.34.15.1.22.17.44.35.66.53,1.72,1.4,3.34,2.92,4.91,4.48s4.43,1.68,5.98,0,1.67-4.31,0-5.98c-5.41-5.39-11.81-10.69-19.68-11.5-3.91-.41-7.76.86-10.99,3.01s-6.19,4.33-9.6,6.07c-.98.5-1.98.97-2.99,1.42.01,0-.65.28-.31.13.26-.11-.44.18-.51.21-.48.19-.96.38-1.44.56-2.07.77-4.19,1.4-6.33,1.94s-3.64,3.07-2.95,5.2,2.9,3.52,5.2,2.95h0Z"/>
    </g>
  </g>
  <g>
    <line class="cls-6" x1="592.96" y1="262.9" x2="606.43" y2="202.54"/>
    <line class="cls-6" x1="623.85" y1="274.17" x2="664.58" y2="219.88"/>
    <line class="cls-6" x1="648.33" y1="292.74" x2="703.06" y2="261.24"/>
  </g>
</svg>