<?xml version="1.0" encoding="UTF-8"?>
<svg id="Layer_1" data-name="Layer 1" xmlns="http://www.w3.org/2000/svg" viewBox="0 0 792 792">
  <defs>
    <style>
      .cls-1, .cls-2 {
        fill: none;
      }

      .cls-3 {
        stroke-width: 2.04px;
      }

      .cls-3, .cls-4 {
        fill: #f26a33;
        stroke: #f26a33;
      }

      .cls-3, .cls-4, .cls-2 {
        stroke-miterlimit: 10;
      }

      .cls-4 {
        stroke-width: 2.73px;
      }

      .cls-2 {
        stroke: #e55f25;
        stroke-width: 18px;
      }
    </style>
  </defs>
  <circle class="cls-2" cx="395.69" cy="401.42" r="341.56"/>
  <g>
    <path class="cls-1" d="m313.37,534.29h-45.97c-.4.95-.72,1.93-.94,2.95-.41,1.91-.42,3.74-.14,5.52,19.1,0,38.2,0,57.3,0-3.29-2.99-6.68-5.85-10.26-8.47Z"/>
    <path class="cls-1" d="m335.16,542.76c53.01,0,106.02,0,159.03,0,.04-2.82.08-5.65.1-8.47h-159.13v8.47Z"/>
    <path class="cls-3" d="m493.92,556.15c-.6,21.44-5.49,42.03-17.25,60.31-15.37,23.89-37.46,37.25-65.74,40.02-13.26,1.29-26.38-.01-39.24-3.46-16.46-4.42-29.07-14.38-39.17-27.78-6.2-8.23-12.22-16.6-18.3-24.92-9.22-12.61-19.42-24.3-31.35-34.46-5.16-4.4-9.86-9.32-13.42-15.18-1.53-2.52-2.69-5.14-3.13-7.91h-6.6c.45,3.65,1.82,7.29,3.89,10.88,4.11,7.12,9.91,12.79,16.05,18.07,10.13,8.71,18.92,18.62,26.91,29.27,8.01,10.68,15.75,21.56,23.95,32.08,7.33,9.39,16.41,16.83,27.33,21.77,19.26,8.71,39.65,10.25,60.12,7.33,28.21-4.02,49.55-19.38,64.49-43.51,12.5-20.18,17.69-42.55,18.11-66.01.06-3.29.1-6.59.13-9.88h-6.51c-.07,4.46-.15,8.93-.27,13.39Z"/>
    <path class="cls-4" d="m286.04,522.5c6.39.28,12.1,2.6,17.62,5.58,3.41,1.85,6.62,3.94,9.71,6.2h10.25c-5.39-3.99-10.68-8.12-16.34-11.69-6.23-3.93-13.14-6.35-20.68-6.65-10.51-.41-18.24,4.26-23.65,12.96-1.12,1.79-1.92,3.59-2.48,5.38h6.92c2.98-7.17,10.64-12.13,18.64-11.79Z"/>
    <path class="cls-3" d="m480.74,460.48c-7.06-.91-14.27-1.46-21.31,1.14-.09-.46-.18-.85-.24-1.25-1.6-10.09-7.1-17.14-16.92-19.96-4.27-1.23-9-.91-13.53-1.17-4.63-.27-9.16.04-12.85,3.57-.58-.96-1.03-1.74-1.51-2.49-4.15-6.42-9.93-10.46-17.59-11.06-6.69-.53-13.5-1.38-20.18,1.43,0-.9,0-1.65,0-2.4,0-12.81.2-25.62-.08-38.42-.38-17.46-19.38-28.59-34.78-20.44-8.87,4.69-13.09,12.3-13.09,22.36.03,47.49.01,94.99,0,142.48h6.5c0-47.6,0-95.21,0-142.81,0-6.58,2.54-11.81,8.07-15.45,10.96-7.22,25.92.29,26.75,13.41.07,1.1.07,2.21.07,3.32,0,36.35,0,72.69,0,109.04v2.8h6.55v-2.46c0-19.38.11-38.77-.08-58.15-.05-4.96,3.09-9.04,8.7-8.58,2.75.22,5.53.03,8.3.04,10.45.06,17.94,7.6,17.96,18.18.03,16.13,0,32.26,0,48.39v2.63h6.56c0-.9,0-1.7,0-2.5,0-15.99,0-31.98,0-47.98,0-5.73,2.63-8.33,8.38-8.33,2.77,0,5.53-.01,8.3,0,10.63.05,18.14,7.48,18.2,18.18.07,12.67.02,25.34.02,38.01v2.59h6.4c.04-.76.11-1.55.11-2.35,0-9.14.17-18.28-.06-27.41-.12-4.92,3.06-8.73,8.45-8.36,3.86.27,7.8-.26,11.59.3,9,1.33,14.85,8.4,14.86,17.94.01,16.52.14,33.05,0,49.57h6.47c.07-16.86-.09-33.73-.1-50.59,0-11.62-8.4-21.73-19.93-23.22Z"/>
    <path class="cls-4" d="m327.46,546.33c.85.81,1.64,1.71,2.59,2.39,2.12,1.52,4.79.29,5.07-2.31.09-.82.05-1.66.05-2.49v-1.16h-11.54c1.29,1.17,2.57,2.36,3.83,3.56Z"/>
    <path class="cls-4" d="m313.82,387.34h-41.18v7.08h41.18v-7.08Z"/>
    <path class="cls-4" d="m356.09,311h-7.07v40.96h7.07v-40.96Z"/>
    <path class="cls-4" d="m391.6,394.39h40.91v-7.05h-40.91v7.05Z"/>
    <path class="cls-4" d="m336.4,355.48c-6.89-11.93-13.7-23.71-20.67-35.79-2.21,1.27-4.23,2.42-6.34,3.63,6.95,12.06,13.79,23.94,20.69,35.92,2.24-1.33,4.24-2.52,6.32-3.76Z"/>
    <path class="cls-4" d="m320.95,368.38c-11.97-6.94-23.83-13.8-35.84-20.76-1.24,2.14-2.41,4.14-3.67,6.32,11.95,6.92,23.8,13.79,35.85,20.77,1.25-2.16,2.41-4.17,3.66-6.33Z"/>
    <path class="cls-4" d="m281.45,427.78c1.24,2.15,2.41,4.17,3.66,6.33,12-6.96,23.86-13.84,35.8-20.76-1.25-2.17-2.39-4.14-3.64-6.31-12.05,6.98-23.87,13.83-35.81,20.74Z"/>
    <path class="cls-4" d="m395.74,323.3c-2.23-1.27-4.24-2.41-6.34-3.61-6.94,12.01-13.73,23.78-20.6,35.69,2.18,1.25,4.14,2.38,6.34,3.65,6.92-11.99,13.74-23.81,20.61-35.72Z"/>
    <path class="cls-4" d="m384.44,413.55c11.92,6.88,23.71,13.69,35.62,20.56,1.25-2.17,2.38-4.13,3.65-6.33-11.95-6.91-23.7-13.7-35.6-20.58-1.26,2.17-2.41,4.18-3.67,6.36Z"/>
    <path class="cls-4" d="m388.06,374.6c11.98-6.95,23.77-13.78,35.65-20.66-1.28-2.22-2.45-4.22-3.66-6.32-11.99,6.95-23.78,13.79-35.64,20.66,1.24,2.15,2.38,4.11,3.66,6.33Z"/>
    <path class="cls-4" d="m626.74,249.28c.02-11.03-9.43-19.89-19.86-19.86-71.96.21-143.91.11-215.87.11-71.78,0-143.56-.02-215.34.08-3.25,0-6.78.49-9.69,1.83-7.81,3.59-11.21,10.11-11.21,18.72.05,90.54.03,181.09.03,271.63,0,.79,0,1.59.05,2.38.79,11.16,8.78,18.6,19.96,18.6h84.9c-.34-2.81-.12-5.64.76-8.47h-71V237.94h406.78v296.35h-95.49c-.01,2.82-.03,5.65-.06,8.47h106.12c11.59,0,19.83-8.2,19.83-19.74,0-91.25-.07-182.5.09-273.75Zm-454.33,146.49c-5.52.04-10.15-4.3-10.25-9.59-.09-5.18,4.64-9.71,10.14-9.71s10.04,4.35,10.02,9.75c-.02,5.25-4.45,9.52-9.91,9.56Z"/>
    <path class="cls-4" d="m328.66,538.36v-4.07h-5.04c.61.45,1.21.9,1.82,1.34.98.72,1.86,1.57,3.22,2.73Z"/>
    <path class="cls-4" d="m266.46,537.24c.22-1.02.54-2.01.94-2.95h-6.92c-.88,2.83-1.1,5.66-.76,8.47h6.6c-.28-1.77-.27-3.61.14-5.52Z"/>
    <path class="cls-4" d="m335.16,542.76v-8.47h-6.5v4.07c-1.36-1.16-2.24-2.02-3.22-2.73-.61-.44-1.21-.89-1.82-1.34h-10.25c3.58,2.62,6.97,5.48,10.26,8.47h11.54Z"/>
    <path class="cls-4" d="m494.3,534.29c-.02,2.82-.06,5.65-.1,8.47h6.51c.03-2.82.05-5.65.06-8.47h-6.47Z"/>
  </g>
</svg>