<?xml version="1.0" encoding="UTF-8"?>
<svg id="Layer_1" data-name="Layer 1" xmlns="http://www.w3.org/2000/svg" viewBox="0 0 792 792">
  <defs>
    <style>
      .cls-1 {
        stroke-linecap: round;
        stroke-linejoin: round;
      }

      .cls-1, .cls-2 {
        stroke-width: 13.07px;
      }

      .cls-1, .cls-2, .cls-3, .cls-4 {
        fill: none;
        stroke: #f26a33;
      }

      .cls-5 {
        fill: #f26a33;
      }

      .cls-2, .cls-3, .cls-4 {
        stroke-miterlimit: 10;
      }

      .cls-3 {
        stroke-width: 10.16px;
      }

      .cls-4 {
        stroke-width: 18px;
      }
    </style>
  </defs>
  <circle class="cls-4" cx="397.7" cy="393.82" r="343.02"/>
  <g>
    <rect class="cls-2" x="182.35" y="204.31" width="429.71" height="384.71" rx="35.98" ry="35.98"/>
    <line class="cls-2" x1="183.11" y1="295.64" x2="611.04" y2="295.64"/>
    <line class="cls-1" x1="258.56" y1="171.65" x2="258.56" y2="238.43"/>
    <line class="cls-1" x1="307.92" y1="171.65" x2="307.92" y2="238.43"/>
    <line class="cls-1" x1="480.67" y1="171.65" x2="480.67" y2="238.43"/>
    <line class="cls-1" x1="532.94" y1="171.65" x2="532.94" y2="238.43"/>
    <rect class="cls-3" x="220.09" y="333.52" width="352.77" height="213.4" rx="19.65" ry="19.65"/>
    <path class="cls-5" d="m303.38,432l62.44,58.72s-17.59.62-17.58.61c21.8-25.6,44.97-49.85,69.88-72.44,18.77-16.8,38.58-32.98,60.89-45.07,7.51-4.01,15.43-7.49,23.88-9.67,1.94-.5,3.92.67,4.42,2.61.48,1.84-.55,3.72-2.32,4.34-44.13,16.09-94.85,77.51-124.07,114.62-4.93,6.38-9.95,13.02-14.59,19.52,0,0-1.55,1.63-1.55,1.63-4.4,4.71-12.26,4.2-16.03-1.02,0,0-50.8-69.04-50.8-69.04-2.53-3.59,2.17-7.78,5.43-4.81h0Z"/>
  </g>
</svg>