<?xml version="1.0" encoding="UTF-8"?>
<svg id="Layer_1" data-name="Layer 1" xmlns="http://www.w3.org/2000/svg" viewBox="0 0 792 792">
  <defs>
    <style>
      .cls-1 {
        stroke-width: 12.52px;
      }

      .cls-1, .cls-2 {
        stroke-linecap: round;
        stroke-linejoin: round;
      }

      .cls-1, .cls-2, .cls-3, .cls-4 {
        fill: none;
        stroke: #f26a33;
      }

      .cls-5 {
        fill: #f26a33;
      }

      .cls-2 {
        stroke-width: 9.96px;
      }

      .cls-3 {
        stroke-width: 13.68px;
      }

      .cls-3, .cls-4 {
        stroke-miterlimit: 10;
      }

      .cls-4 {
        stroke-width: 18px;
      }
    </style>
  </defs>
  <g>
    <line class="cls-1" x1="422.22" y1="304.86" x2="436.74" y2="215.28"/>
    <line class="cls-1" x1="361.96" y1="319.87" x2="328.06" y2="222.44"/>
    <line class="cls-2" x1="308.44" y1="332.11" x2="255.47" y2="270.48"/>
  </g>
  <circle class="cls-4" cx="402.19" cy="402.94" r="343.02"/>
  <g>
    <g>
      <path class="cls-3" d="m611.1,399.42c-12.31-52.43-63.84-85.4-116.25-75.21l-.02-.1-330.81,77.71,45.69,194.51,330.81-77.71-.02-.1c51.46-14.21,82.92-66.67,70.6-119.1Z"/>
      <circle class="cls-3" cx="536.91" cy="410.38" r="27.53"/>
      <rect class="cls-3" x="214.17" y="400.24" width="271.38" height="123.5" rx="25.53" ry="25.53" transform="translate(-96.37 92.24) rotate(-13.22)"/>
      <g>
        <path class="cls-5" d="m271.77,511.49l-14.03-59.74,8.42-1.98,26.25,25.73c6.08,5.96,11.01,11.44,15.29,16.89l.16-.13c-2.58-7.81-4.47-15.04-6.65-24.35l-5.87-25,7.27-1.71,14.03,59.74-7.8,1.83-26.09-25.86c-5.73-5.67-11.32-11.56-15.85-17.32l-.25.15c2.21,7.43,4.08,14.57,6.41,24.5l6,25.53-7.27,1.71Z"/>
        <path class="cls-5" d="m354.45,462.51l-23.22,5.46,5.06,21.54,25.88-6.08,1.52,6.47-33.6,7.89-14.03-59.74,32.27-7.58,1.52,6.47-24.55,5.77,4.43,18.88,23.22-5.46,1.5,6.38Z"/>
        <path class="cls-5" d="m384.26,485.07l-29.19-56.18,8.15-1.92,14.19,28.56c3.52,7.03,6.87,14.1,9.28,19.61l.18-.04c-.42-6.17-.22-13.7,0-21.89l.9-32.01,8.07-1.89,14.39,28.61c3.35,6.7,6.61,13.41,8.97,19.5l.18-.04c-.3-6.85-.18-13.89-.07-21.78l.81-31.99,7.89-1.85-2.9,63.72-8.07,1.89-14.84-29.34c-3.65-7.19-6.27-12.74-8.48-18.58l-.18.04c.33,6.19.38,12.35-.03,20.58l-1.2,33.11-8.07,1.9Z"/>
      </g>
    </g>
    <path class="cls-5" d="m534.55,422.84c12.58-.57,22.81-8.09,29.98-18.01s9.91-21.74,13.23-33.01c1.85-6.27,3.99-12.43,6.52-18.46l-.83,1.96c5.28-12.52,12.03-24.56,20.31-35.35l-1.28,1.66c2.99-3.86,6.28-7.51,10.16-10.51l-1.66,1.28c2.16-1.64,4.46-3.03,6.96-4.1l-1.96.83c2.08-.85,4.23-1.45,6.47-1.75l-2.18.29c2.24-.27,4.47-.24,6.71.04l-2.18-.29c2.96.41,5.81,1.24,8.56,2.39l-1.96-.83c3.3,1.43,6.35,3.29,9.21,5.48l-1.66-1.28c6.26,4.88,11.32,11.02,16.31,17.13,1.25,1.53,3.91,2.4,5.81,2.4,2.01,0,4.42-.89,5.81-2.4s2.5-3.62,2.4-5.81c-.1-2.3-.96-4.03-2.4-5.81-7.19-8.79-14.86-17.87-25.24-23-5.78-2.86-12.12-4.75-18.63-4.64-6.14.11-12.2,1.95-17.43,5.18-9.65,5.97-16.53,15.52-22.6,24.89-6.35,9.81-11.56,20.28-15.86,31.14-2.27,5.74-4.15,11.61-5.87,17.54s-3.48,12.23-5.93,18.1l.83-1.96c-1.77,4.19-3.91,8.19-6.69,11.8l1.28-1.66c-1.96,2.5-4.18,4.77-6.67,6.74l1.66-1.28c-2.07,1.6-4.3,2.96-6.7,4l1.96-.83c-2.05.86-4.17,1.47-6.37,1.78l2.18-.29c-.74.09-1.48.16-2.23.19-4.28.19-8.42,3.64-8.21,8.21.19,4.28,3.62,8.42,8.21,8.21h0Z"/>
  </g>
</svg>