<?xml version="1.0" encoding="UTF-8"?>
<svg id="Layer_1" data-name="Layer 1" xmlns="http://www.w3.org/2000/svg" viewBox="0 0 792 792">
  <defs>
    <style>
      .cls-1 {
        stroke-width: 9.83px;
      }

      .cls-1, .cls-2, .cls-3, .cls-4 {
        stroke: #f36b33;
      }

      .cls-1, .cls-2, .cls-3, .cls-4, .cls-5 {
        fill: none;
      }

      .cls-1, .cls-3, .cls-4 {
        stroke-linecap: round;
        stroke-linejoin: round;
      }

      .cls-2 {
        stroke-width: 2.71px;
      }

      .cls-2, .cls-5 {
        stroke-miterlimit: 10;
      }

      .cls-3 {
        stroke-width: 6.9px;
      }

      .cls-4 {
        stroke-width: 8.74px;
      }

      .cls-5 {
        stroke: #f36e37;
        stroke-width: 18px;
      }
    </style>
  </defs>
  <circle class="cls-5" cx="394.09" cy="403.54" r="339.8"/>
  <g>
    <path class="cls-2" d="m433.44,395.31l-5.88,10.66,14.96-4.24c-.61-.24-1.23-.46-1.83-.75-2.81-1.4-5.22-3.34-7.26-5.67Z"/>
    <polygon class="cls-2" points="315.08 512.31 315.36 511.83 270.98 490.1 315.08 512.31"/>
    <path class="cls-2" d="m475.86,318.36c1.74.41,3.44,1,5.08,1.82,15.87,7.9,19.72,32.39,8.61,54.71-3.37,6.77-7.74,12.54-12.62,17.1l112.39-31.84-107.41-52.74-6.04,10.96Z"/>
    <path class="cls-2" d="m326.07,493.51l38.7-66.16c-.17-.06-.34-.12-.52-.19l-38.18,66.34Z"/>
    <path class="cls-3" d="m366.49,423.27l-2.24,3.9c.17.06.35.13.52.19l2.01-3.43-.28-.65Z"/>
    <polyline class="cls-3" points="494.04 285.37 497.92 278.33 351.49 216.15 337.28 268.05"/>
    <path class="cls-3" d="m321.48,325.75l-16.13,58.89c-.86,4.3,2.36,9.34,8.66,14.79l52.48,23.83,61.07-17.3,5.88-10.66,16.25-29.47"/>
    <path class="cls-1" d="m446.56,373.56c12.76,3.11,16.37,2.08,26.57,1.76,33.63-1.05,34.41-22.67,1.73-48.28"/>
    <polyline class="cls-3" points="449.68 365.84 475.86 318.36 481.9 307.4"/>
    <polygon class="cls-4" points="124.87 321.27 215.56 353.04 321.48 325.75 337.28 268.05 124.87 321.27"/>
    <line class="cls-3" x1="337.28" y1="268.05" x2="321.48" y2="325.75"/>
    <polyline class="cls-4" points="369.08 428.78 378.99 452.11 409.97 523.6 657.45 457.55 589.31 360.15 476.92 391.99 366.78 423.92 366.89 428.08"/>
    <polygon class="cls-4" points="589.31 360.15 695.08 353.04 536.22 279.46 494.04 285.37 481.9 307.4 589.31 360.15"/>
    <polyline class="cls-4" points="314.01 399.44 211.82 353.04 153.29 432.47 205.57 458.07 205.55 457.13 270.98 490.1 315.36 511.83 326.07 493.51 364.25 427.17"/>
    <polyline class="cls-3" points="427.56 405.97 366.49 423.27 366.78 423.92 366.91 423.69 369.08 428.78"/>
    <path class="cls-4" d="m366.89,428.08l-1.19,254.58,224.45-69.18,4.18-137.95-184.77,48.49-30.56-71.91-10.14-23.4c-.65-.2-1.3-.41-1.96-.63Z"/>
    <path class="cls-3" d="m366.89,428.08c.66.22,1.31.43,1.96.63l-1.94-4.48-.02,3.85Z"/>
    <path class="cls-4" d="m368.85,428.71l10.14,23.4-9.92-23.33c-.07-.02-.15-.05-.23-.07Z"/>
    <path class="cls-3" d="m366.91,424.23l1.94,4.48c.08.02.15.05.23.07l-2.16-5.09v.54Z"/>
    <path class="cls-4" d="m364.77,427.35l-38.7,66.16-10.58,18.38-.13-.07-.28.48-44.09-22.21-65.41-32.03,4.16,154.57,155.97,70.01,1.19-254.58c-.7-.23-1.41-.47-2.12-.72Z"/>
    <path class="cls-3" d="m366.78,423.92l-2.01,3.43c.71.25,1.42.49,2.12.72l.02-3.85-.13-.31Z"/>
    <polygon class="cls-4" points="315.49 511.89 326.07 493.51 315.36 511.83 315.49 511.89"/>
    <polygon class="cls-4" points="205.55 457.13 205.57 458.07 270.98 490.1 205.55 457.13"/>
    <polygon class="cls-3" points="366.91 423.69 366.78 423.92 366.91 424.23 366.91 423.69"/>
    <g>
      <line class="cls-4" x1="404.08" y1="206.16" x2="404.08" y2="133.7"/>
      <line class="cls-4" x1="439.06" y1="211.15" x2="469.04" y2="138.7"/>
      <line class="cls-4" x1="469.04" y1="226.14" x2="519.01" y2="176.17"/>
    </g>
  </g>
</svg>