<?xml version="1.0" encoding="UTF-8"?>
<svg id="Layer_1" data-name="Layer 1" xmlns="http://www.w3.org/2000/svg" viewBox="0 0 792 792">
  <defs>
    <style>
      .cls-1 {
        fill: #f36e37;
      }

      .cls-2 {
        stroke-width: 10.84px;
      }

      .cls-2, .cls-3 {
        fill: none;
        stroke: #f36e37;
        stroke-miterlimit: 10;
      }

      .cls-3 {
        stroke-width: 18px;
      }
    </style>
  </defs>
  <circle class="cls-3" cx="395.43" cy="402.3" r="339.49"/>
  <g>
    <g>
      <polyline class="cls-2" points="517.06 435.6 637.3 435.94 637.3 281.59 221.73 281.59 158.41 281.59 158.41 435.94 277.77 435.84"/>
      <polyline class="cls-2" points="496.06 281.75 480.54 213.72 209.74 213.72 221.73 281.59"/>
      <rect class="cls-2" x="187.69" y="436.98" width="36.52" height="119.21"/>
      <rect class="cls-2" x="164.27" y="556.18" width="84.06" height="18.6"/>
      <rect class="cls-2" x="147.04" y="578.23" width="119.21" height="20.02"/>
      <rect class="cls-2" x="571.5" y="436.98" width="36.52" height="119.21"/>
      <rect class="cls-2" x="548.07" y="556.18" width="84.06" height="18.6"/>
      <rect class="cls-2" x="530.85" y="578.23" width="119.21" height="17.53"/>
      <rect class="cls-2" x="531.48" y="283.73" width="104.84" height="76.07"/>
      <rect class="cls-2" x="553.58" y="317.08" width="57.19" height="19.29"/>
      <rect class="cls-2" x="190.45" y="315.7" width="40.65" height="15.16"/>
      <rect class="cls-2" x="189.07" y="347.4" width="44.1" height="18.6"/>
      <g>
        <path class="cls-2" d="m242.75,285.25s50.37,119.34,35.02,150.59c-12.17,24.77-10.14,80.38,16.04,81.76,16.87.89,29.63-16.54,29.63-30.32s-2.76-24.81-2.76-24.81l225.32,3.45s2.07,39.28-15.16,49.61c-17.23,10.34-234.28,3.45-234.28,3.45"/>
        <path class="cls-2" d="m480.45,281.36s30.6,64.07,37.74,182.88"/>
      </g>
      <g>
        <path class="cls-1" d="m295.96,462.59c19.53-22.27,40.7-43.09,63.29-62.24,2.81-2.38,5.65-4.74,8.51-7.07,1.43-1.17,2.86-2.33,4.3-3.48,1.29-1.04,1.91-1.62,3.58-2.55.01,0,1.2-.61.49-.3.37-.16.77-.25,1.15-.38.9-.32-.42-.08.65-.12.46-.01.93-.02,1.39.03-.64-.07.85.18.77.16.46.11.92.23,1.37.37.91.27,1.8.6,2.7.91,3.64,1.29,7.27,2.61,10.89,3.94,14.64,5.39,29.17,11.09,43.56,17.11,7.58,3.17,15.63,6.66,23.37,10.13,7.92,3.55,15.8,7.19,23.63,10.93,1.92.91,4.48.59,5.56-1.46.96-1.81.59-4.58-1.46-5.56-28.76-13.72-58.13-26.17-87.98-37.31-3.77-1.41-7.54-2.79-11.33-4.15s-7.53-3.05-11.55-3.23c-4.35-.2-7.91,2.07-11.18,4.64-2.87,2.26-5.7,4.58-8.51,6.9-11.6,9.59-22.84,19.61-33.69,30.04-12.27,11.8-24.04,24.13-35.26,36.93-1.4,1.6-1.69,4.2,0,5.75,1.53,1.41,4.25,1.71,5.75,0h0Z"/>
        <path class="cls-1" d="m414.8,388.1c10.97-5.45,21.58-11.62,31.73-18.47,2.45-1.65,4.8-3.47,7.3-5.04.3-.18.6-.36.9-.53.14-.08.94-.4.34-.18.26-.09.52-.16.78-.23-.65.17.12,0,.34-.01.65-.01-.76-.29.33.04.26.08.52.14.78.24-.6-.21.21.11.35.19.37.2.73.41,1.09.64,2.61,1.66,5.08,3.56,7.59,5.36,2.68,1.91,5.36,3.82,8.05,5.72,5.9,4.2,11.8,8.4,17.7,12.59,1.74,1.24,4.6.36,5.56-1.46,1.11-2.09.4-4.24-1.46-5.56-5.5-3.91-11-7.82-16.49-11.74s-10.78-7.88-16.32-11.59c-2.87-1.92-6.22-3.09-9.68-2.25-3.03.73-5.49,2.81-7.99,4.55-5.25,3.65-10.62,7.12-16.11,10.4-6.16,3.68-12.47,7.12-18.9,10.32-1.91.95-2.59,3.8-1.46,5.56,1.26,1.95,3.52,2.47,5.56,1.46h0Z"/>
        <path class="cls-1" d="m307.28,396.74c4.14-1.03,8.16-2.55,11.97-4.48,1.81-.92,3.56-1.94,5.25-3.07s3.14-2.34,4.86-3.28c.19-.11.38-.2.58-.3-.3.11-.23.09.2-.07.37-.12.75-.2,1.13-.32.49-.09.5-.1.05-.04.25-.03.5-.04.75-.05.38-.01.75,0,1.12.02.49.05.5.04.04-.02.25.04.5.09.74.14.37.08.74.18,1.11.3.25.08.49.16.73.25.4.16.49.19.24.08-.24-.11-.16-.07.24.11.24.11.48.23.72.35.85.44,1.67.93,2.46,1.46.35.23.68.48,1.02.72.39.29.45.33.18.12.22.17.44.35.66.52,1.5,1.22,2.9,2.54,4.27,3.9,1.51,1.5,4.26,1.62,5.75,0s1.61-4.14,0-5.75c-5.88-5.86-14.29-12.56-23.18-9.71-4.25,1.37-7.61,4.65-11.48,6.78-.89.49-1.79.95-2.71,1.39-.52.25-1.05.49-1.58.72.43-.18-.89.36-1.04.41-2.03.78-4.12,1.42-6.23,1.95s-3.5,2.95-2.84,5,2.79,3.39,5,2.84h0Z"/>
      </g>
    </g>
    <g>
      <line class="cls-2" x1="467.14" y1="181.68" x2="479.07" y2="128.21"/>
      <line class="cls-2" x1="494.5" y1="191.65" x2="530.58" y2="143.57"/>
      <line class="cls-2" x1="516.18" y1="208.1" x2="564.66" y2="180.21"/>
    </g>
  </g>
</svg>