<?xml version="1.0" encoding="UTF-8"?>
<svg id="Layer_1" data-name="Layer 1" xmlns="http://www.w3.org/2000/svg" viewBox="0 0 792 792">
  <defs>
    <style>
      .cls-1 {
        stroke-width: 14.92px;
      }

      .cls-1, .cls-2, .cls-3 {
        stroke-linecap: round;
        stroke-linejoin: round;
      }

      .cls-1, .cls-2, .cls-3, .cls-4 {
        stroke: #f26a33;
      }

      .cls-2 {
        stroke-width: 7.93px;
      }

      .cls-2, .cls-3, .cls-4 {
        fill: none;
      }

      .cls-3 {
        stroke-width: 9.69px;
      }

      .cls-4 {
        stroke-miterlimit: 10;
        stroke-width: 18px;
      }
    </style>
  </defs>
  <circle class="cls-4" cx="404.69" cy="403.04" r="343.02"/>
  <g>
    <path class="cls-1" d="m126.42,411.73h106.57m339.1-4.84h101.73M186.97,215.54l80.57,79.06m338.46-83.9l-80.56,81.65m-130.16-171.27l.64,119.72"/>
    <path class="cls-3" d="m403.43,695.96c-18.71.51-38.45-13.12-42.09-29.49h82.05c-2.31,11.2-16.83,28.86-39.96,29.49Zm106.97-220.57c-19.06,29.79-36.28,60.54-48.64,93.79-2.82,7.59-4.91,15.45-7.44,23.51-5.33-4.92-12.22-4.2-18.97-4.21-23.56,0-47.12-.1-70.68.09-4.25.03-8.5,1.21-13.07,1.91-1.51-3.96-3.27-8.85-5.21-13.65-12.01-29.7-27.31-57.75-42.99-85.61-6.53-11.6-14.07-22.83-19.07-35.08-18.59-45.55-13.53-88.83,15.79-128.48,20.59-27.85,48.83-44.08,82.91-49.47,67.62-10.68,132.13,34.6,145.49,102.06,6.74,34.01.61,65.86-18.12,95.14Zm-65.47,145.86h-87.2c-5.33,0-9.69-4.36-9.69-9.69h0c0-5.33,4.36-9.69,9.69-9.69h87.2c5.33,0,9.69,4.36,9.69,9.69h0c0,5.33-4.36,9.69-9.69,9.69Zm1.21,32.7h-87.2c-5.33,0-9.69-4.36-9.69-9.69h0c0-5.33,4.36-9.69,9.69-9.69h87.2c5.33,0,9.69,4.36,9.69,9.69h0c0,5.33-4.36,9.69-9.69,9.69Z"/>
    <polygon class="cls-2" points="368.63 441.02 446.14 322.11 405.7 424.03 446.14 407.05 368.63 540.11 402.33 435.36 368.63 441.02"/>
  </g>
</svg>