<?xml version="1.0" encoding="UTF-8"?>
<svg id="Layer_1" data-name="Layer 1" xmlns="http://www.w3.org/2000/svg" viewBox="0 0 792 792">
  <defs>
    <style>
      .cls-1 {
        stroke-width: 11.99px;
      }

      .cls-1, .cls-2, .cls-3, .cls-4, .cls-5 {
        fill: none;
        stroke: #f26a33;
      }

      .cls-1, .cls-3 {
        stroke-linecap: round;
        stroke-linejoin: round;
      }

      .cls-2 {
        stroke-width: 10.7px;
      }

      .cls-2, .cls-4, .cls-5 {
        stroke-miterlimit: 10;
      }

      .cls-3 {
        stroke-width: 10.62px;
      }

      .cls-4 {
        stroke-width: 11.47px;
      }

      .cls-5 {
        stroke-width: 18px;
      }
    </style>
  </defs>
  <circle class="cls-5" cx="398.24" cy="402.24" r="343.02"/>
  <g>
    <g>
      <rect class="cls-4" x="265.65" y="237.89" width="223.9" height="165.93" rx="14.9" ry="14.9"/>
      <g>
        <g>
          <path class="cls-2" d="m376.52,235.92s-73.19,4.7-74.64-37.66c-1.45-42.36,42.22-35.98,58.07-9.41,7.37,12.36,16.56,47.07,16.56,47.07Z"/>
          <path class="cls-2" d="m377,233.25s-18.89-76.99,22.04-74.66c40.93,2.33,43.27,47.43,20.51,61.6-10.58,6.59-42.56,13.06-42.56,13.06Z"/>
        </g>
        <g>
          <path class="cls-2" d="m375.13,232.35s-67.04-22.78-41.28-60.38c25.76-37.6,59.9-15.97,56.81,13.11-1.43,13.52-15.54,47.27-15.54,47.27Z"/>
          <path class="cls-2" d="m377.24,230.19s32.59-74.3,66.92-57.23c34.33,17.08,7.6,57.4-21.35,61.44-13.46,1.88-45.57-4.21-45.57-4.21Z"/>
        </g>
      </g>
      <line class="cls-4" x1="377.17" y1="237.94" x2="377.17" y2="402.81"/>
    </g>
    <path class="cls-1" d="m357.6,491.11l87.96-1.34s48.35-.4,52.98-3.66c9-6.34,11-16.33,10-27.99-.53-6.17-4.96-13.63-9.98-18.62-3.43-3.4-7.99-4.95-12.5-6.67-18.5-7.04-193.6.97-193.6.97-6.3.21-12.28,2.84-16.7,7.34l-86.06,87.79c-4.5,4.59-7.01,10.75-7.01,17.17v68.82c0,13.77,11.34,24.85,25.11,24.52l48.52-1.16c6.6-.16,12.87-2.97,17.37-7.81l15.1-16.21c3.17-3.4,7.24-5.84,11.74-7.02l200.58-52.49c4.21-1.1,8.06-3.31,11.13-6.38l141.53-141.53c3.98-3.98,6.5-9.2,7.05-14.8.63-6.44.83-15.26-1.35-22.89-1.24-4.33-3.43-8.27-5.86-11.65-5.71-7.93-15.72-11.51-25.24-9.31l-5.77,1.33c-4.64,1.07-8.87,3.47-12.16,6.9l-98.9,107.35"/>
    <path class="cls-1" d="m630.48,346.41c-1.24-4.33-3.43-8.27-5.86-11.65-5.71-7.93-15.72-11.51-25.24-9.31l-5.77,1.33c-4.64,1.07-8.87,3.47-12.16,6.9l-94.9,98.7"/>
    <path class="cls-3" d="m571.13,344.97c-1.09-3.83-3.03-7.32-5.19-10.32-5.05-7.02-13.92-10.18-22.34-8.24l-5.11,1.18c-4.11.95-7.85,3.07-10.77,6.11l-37.18,39.13"/>
    <line class="cls-3" x1="454.56" y1="404.81" x2="426.57" y2="428.8"/>
  </g>
</svg>