<?xml version="1.0" encoding="UTF-8"?>
<svg id="Layer_1" data-name="Layer 1" xmlns="http://www.w3.org/2000/svg" viewBox="0 0 792 792">
  <defs>
    <style>
      .cls-1 {
        stroke-width: 8.2px;
      }

      .cls-1, .cls-2, .cls-3 {
        fill: none;
        stroke: #f26a33;
        stroke-miterlimit: 10;
      }

      .cls-2 {
        stroke-width: 18px;
      }

      .cls-3 {
        stroke-width: 10.64px;
      }
    </style>
  </defs>
  <circle class="cls-2" cx="389.24" cy="403.72" r="339.62"/>
  <g>
    <g>
      <path class="cls-1" d="m464.74,443.53c.01-9.11.44-18.23.19-27.33-.38-13.87-11.56-24.41-25.44-24.42-17.89-.01-35.78,0-53.67,0-14.8,0-29.59-.03-44.39,0-6.22.01-11.64,2.02-15.9,6.71-5.13,5.65-8.24,12.11-8.21,19.91.01,3.84-.19,7.69-.19,11.53,0,7.29,0,14.58,0,21.87l147.62.39c0-2.88,0-5.77,0-8.66Z"/>
      <path class="cls-1" d="m373.7,381.92c9.5,5.23,19.4,5.13,29.15.44,8.87-4.26,15.54-10.9,20.17-19.56,2.63-4.92,4.44-10.14,4.45-15.76.03-17.86-8.32-30.95-23.46-39.8-7.41-4.33-15.44-5.14-23.7-2.3-16.15,5.56-29.13,23.67-29.21,43.63.75,13.43,8.42,25.54,22.6,33.35Z"/>
    </g>
    <rect class="cls-1" x="181.11" y="453.84" width="425.34" height="163.99" rx="21.4" ry="21.4"/>
    <rect class="cls-3" x="183.16" y="176.6" width="417.65" height="72.26" rx="19.01" ry="19.01"/>
    <rect class="cls-3" x="222.1" y="248.86" width="341.29" height="202.93"/>
    <line class="cls-3" x1="181.11" y1="475.24" x2="606.45" y2="475.24"/>
  </g>
</svg>