<?xml version="1.0" encoding="UTF-8"?>
<svg id="Layer_1" data-name="Layer 1" xmlns="http://www.w3.org/2000/svg" viewBox="0 0 1024 1024">
  <defs>
    <style>
      .cls-1 {
        stroke-width: 11.96px;
      }

      .cls-1, .cls-2, .cls-3, .cls-4, .cls-5 {
        fill: none;
        stroke: orange;
      }

      .cls-1, .cls-3, .cls-5 {
        stroke-miterlimit: 10;
      }

      .cls-2 {
        stroke-width: 11.86px;
      }

      .cls-2, .cls-4 {
        stroke-linecap: round;
        stroke-linejoin: round;
      }

      .cls-3 {
        stroke-width: 12.82px;
      }

      .cls-4 {
        stroke-width: 13.4px;
      }

      .cls-5 {
        stroke-width: 16.48px;
      }
    </style>
  </defs>
  <circle class="cls-5" cx="512" cy="512" r="383.3"/>
  <g>
    <g>
      <rect class="cls-3" x="363.83" y="328.35" width="250.19" height="185.41" rx="16.65" ry="16.65"/>
      <g>
        <g>
          <path class="cls-1" d="m487.73,326.16s-81.78,5.25-83.4-42.09c-1.62-47.33,47.18-40.21,64.89-10.51,8.24,13.81,18.51,52.6,18.51,52.6Z"/>
          <path class="cls-1" d="m488.26,323.18s-21.1-86.03,24.63-83.42c45.74,2.6,48.35,53,22.92,68.83-11.82,7.36-47.55,14.59-47.55,14.59Z"/>
        </g>
        <g>
          <path class="cls-1" d="m486.17,322.16s-74.91-25.46-46.12-67.47c28.78-42.01,66.93-17.85,63.48,14.64-1.6,15.11-17.36,52.82-17.36,52.82Z"/>
          <path class="cls-1" d="m488.53,319.75s36.41-83.03,74.77-63.94c38.36,19.08,8.49,64.14-23.86,68.65-15.04,2.1-50.92-4.71-50.92-4.71Z"/>
        </g>
      </g>
      <line class="cls-3" x1="488.46" y1="328.42" x2="488.46" y2="512.64"/>
    </g>
    <path class="cls-4" d="m466.59,611.31l98.29-1.49s54.03-.45,59.2-4.09c10.05-7.08,12.29-18.25,11.17-31.27-.59-6.9-5.54-15.23-11.16-20.81-3.83-3.8-8.92-5.53-13.97-7.45-20.67-7.86-216.33,1.08-216.33,1.08-7.04.23-13.72,3.17-18.66,8.21l-96.17,98.09c-5.02,5.12-7.84,12.01-7.84,19.19v76.9c0,15.39,12.67,27.77,28.06,27.4l54.22-1.29c7.38-.18,14.38-3.32,19.41-8.72l16.87-18.12c3.54-3.8,8.09-6.52,13.12-7.84l224.14-58.65c4.71-1.23,9-3.69,12.44-7.13l158.15-158.15c4.45-4.45,7.27-10.28,7.88-16.54.7-7.2.92-17.05-1.51-25.57-1.38-4.83-3.83-9.24-6.55-13.02-6.38-8.86-17.57-12.86-28.2-10.4l-6.45,1.49c-5.18,1.2-9.91,3.87-13.59,7.71l-110.51,119.96"/>
    <path class="cls-4" d="m771.51,449.62c-1.38-4.83-3.83-9.24-6.55-13.02-6.38-8.86-17.57-12.86-28.2-10.4l-6.45,1.49c-5.18,1.2-9.91,3.87-13.59,7.71l-106.04,110.28"/>
    <path class="cls-2" d="m705.19,448c-1.22-4.28-3.39-8.18-5.8-11.53-5.65-7.84-15.55-11.38-24.96-9.21l-5.71,1.32c-4.59,1.06-8.77,3.43-12.03,6.82l-41.55,43.73"/>
    <line class="cls-2" x1="574.93" y1="514.88" x2="543.66" y2="541.68"/>
  </g>
</svg>