<?xml version="1.0" encoding="UTF-8"?>
<svg id="Layer_1" data-name="Layer 1" xmlns="http://www.w3.org/2000/svg" viewBox="0 0 1024 1024">
  <defs>
    <style>
      .cls-1, .cls-2, .cls-3, .cls-4, .cls-5 {
        fill: none;
      }

      .cls-2 {
        stroke-width: 11.09px;
      }

      .cls-2, .cls-3, .cls-4, .cls-5 {
        stroke: #000;
      }

      .cls-2, .cls-3, .cls-5 {
        stroke-linecap: round;
        stroke-linejoin: round;
      }

      .cls-3 {
        stroke-width: 9.86px;
      }

      .cls-4 {
        stroke-miterlimit: 10;
        stroke-width: 16.48px;
      }

      .cls-5 {
        stroke-width: 7.79px;
      }
    </style>
  </defs>
  <circle class="cls-4" cx="512" cy="512" r="383.3"/>
  <g>
    <path class="cls-1" d="m556.39,502.71l-6.63,12.03,16.88-4.78c-.69-.27-1.39-.52-2.06-.85-3.17-1.58-5.89-3.76-8.19-6.4Z"/>
    <polygon class="cls-1" points="422.87 634.7 423.19 634.15 373.13 609.64 422.87 634.7"/>
    <path class="cls-1" d="m604.24,415.91c1.97.46,3.88,1.13,5.73,2.05,17.9,8.91,22.25,36.54,9.71,61.71-3.8,7.64-8.73,14.15-14.24,19.29l126.78-35.92-121.16-59.49-6.81,12.36Z"/>
    <path class="cls-1" d="m435.28,613.49l43.65-74.63c-.19-.07-.39-.14-.58-.21l-43.07,74.84Z"/>
    <path class="cls-5" d="m480.87,534.26l-2.53,4.4c.19.07.39.14.58.21l2.26-3.87-.32-.73Z"/>
    <polyline class="cls-5" points="624.75 378.7 629.13 370.76 463.95 300.62 447.92 359.16"/>
    <path class="cls-5" d="m430.1,424.26l-18.19,66.43c-.97,4.85,2.66,10.53,9.76,16.69l59.2,26.88,68.89-19.52,6.63-12.03,18.33-33.24"/>
    <path class="cls-2" d="m571.19,478.18c14.39,3.51,18.46,2.35,29.97,1.99,37.94-1.19,38.81-25.57,1.95-54.46"/>
    <polyline class="cls-5" points="574.71 469.47 604.24 415.91 611.05 403.56"/>
    <polygon class="cls-3" points="208.31 419.19 310.61 455.03 430.1 424.26 447.92 359.16 208.31 419.19"/>
    <line class="cls-5" x1="447.92" y1="359.16" x2="430.1" y2="424.26"/>
    <path class="cls-3" d="m483.79,540.47l11.18,26.32,34.95,80.64,279.17-74.51-76.87-109.87-126.78,35.92-124.25,36.02.13,4.69"/>
    <polygon class="cls-3" points="732.22 463.05 851.52 455.03 672.33 372.04 624.75 378.7 611.05 403.56 732.22 463.05"/>
    <path class="cls-3" d="m421.67,507.38l-115.28-52.34-66.02,89.6,58.97,28.88-.03-1.06,73.81,37.19,50.06,24.51,12.09-20.66,43.07-74.84"/>
    <path class="cls-5" d="m549.76,514.74l-68.89,19.52.32.73.15-.26,2.44,5.74"/>
    <path class="cls-3" d="m481.32,539.68l-1.35,287.17,253.18-78.03,4.72-155.62-208.43,54.7-34.47-81.12-11.44-26.4c-.73-.23-1.47-.47-2.21-.71Z"/>
    <path class="cls-5" d="m481.32,539.68c.74.25,1.48.48,2.21.71l-2.19-5.05-.02,4.34Z"/>
    <path class="cls-3" d="m483.53,540.39l11.44,26.4-11.18-26.32c-.08-.03-.17-.05-.25-.08Z"/>
    <path class="cls-5" d="m481.34,535.34l2.19,5.05c.08.03.17.05.25.08l-2.44-5.74v.61Z"/>
    <path class="cls-3" d="m478.93,538.86l-43.65,74.63-11.93,20.74-.15-.07-.32.55-49.74-25.06-73.79-36.13,4.69,174.37,175.94,78.98,1.35-287.17c-.79-.26-1.59-.53-2.39-.82Z"/>
    <path class="cls-5" d="m481.19,534.99l-2.26,3.87c.8.28,1.6.55,2.39.82l.02-4.34-.15-.35Z"/>
    <polygon class="cls-3" points="423.34 634.23 435.28 613.49 423.19 634.15 423.34 634.23"/>
    <polygon class="cls-3" points="299.32 572.45 299.35 573.51 373.13 609.64 299.32 572.45"/>
    <polygon class="cls-5" points="481.35 534.73 481.19 534.99 481.34 535.34 481.35 534.73"/>
    <g>
      <line class="cls-3" x1="523.27" y1="289.35" x2="523.27" y2="207.61"/>
      <line class="cls-3" x1="562.73" y1="294.98" x2="596.55" y2="213.25"/>
      <line class="cls-3" x1="596.55" y1="311.89" x2="652.92" y2="255.53"/>
    </g>
  </g>
</svg>