<?xml version="1.0" encoding="UTF-8"?>
<svg id="Layer_1" data-name="Layer 1" xmlns="http://www.w3.org/2000/svg" viewBox="0 0 1024 1024">
  <defs>
    <style>
      .cls-1 {
        stroke-width: 11.13px;
      }

      .cls-1, .cls-2, .cls-3, .cls-4 {
        fill: none;
        stroke: #000;
      }

      .cls-1, .cls-4 {
        stroke-linecap: round;
        stroke-linejoin: round;
      }

      .cls-2 {
        stroke-width: 15.29px;
      }

      .cls-2, .cls-3 {
        stroke-miterlimit: 10;
      }

      .cls-3 {
        stroke-width: 16.48px;
      }

      .cls-4 {
        stroke-width: 13.99px;
      }
    </style>
  </defs>
  <g>
    <line class="cls-4" x1="534.38" y1="402.4" x2="550.61" y2="302.31"/>
    <line class="cls-4" x1="467.04" y1="419.18" x2="429.17" y2="310.31"/>
    <line class="cls-1" x1="407.24" y1="432.86" x2="348.05" y2="363.99"/>
  </g>
  <circle class="cls-3" cx="512" cy="512" r="383.3"/>
  <g>
    <g>
      <path class="cls-2" d="m745.44,508.06c-13.76-58.58-71.33-95.42-129.9-84.04l-.03-.11-369.66,86.83,51.05,217.35,369.66-86.83-.03-.11c57.5-15.88,92.65-74.5,78.89-133.09Z"/>
      <circle class="cls-2" cx="662.54" cy="520.31" r="30.76"/>
      <rect class="cls-2" x="301.9" y="508.99" width="303.25" height="138" rx="28.53" ry="28.53" transform="translate(-120.15 119.02) rotate(-13.22)"/>
      <g>
        <path d="m366.27,633.3l-15.68-66.76,9.41-2.21,29.33,28.75c6.79,6.66,12.3,12.79,17.08,18.88l.17-.14c-2.89-8.73-4.99-16.8-7.43-27.2l-6.56-27.93,8.12-1.91,15.68,66.76-8.72,2.05-29.15-28.9c-6.4-6.34-12.65-12.91-17.71-19.35l-.27.17c2.47,8.3,4.56,16.28,7.16,27.37l6.7,28.53-8.12,1.91Z"/>
        <path d="m458.66,578.57l-25.95,6.1,5.65,24.07,28.92-6.79,1.7,7.23-37.54,8.82-15.68-66.76,36.05-8.47,1.7,7.23-27.44,6.44,4.96,21.1,25.95-6.1,1.68,7.13Z"/>
        <path d="m491.97,603.77l-32.62-62.78,9.11-2.14,15.86,31.91c3.93,7.86,7.67,15.76,10.37,21.92l.2-.05c-.47-6.89-.25-15.3,0-24.46l1-35.77,9.01-2.12,16.08,31.97c3.74,7.48,7.39,14.99,10.03,21.79l.2-.05c-.33-7.66-.2-15.53-.07-24.33l.91-35.75,8.82-2.07-3.24,71.2-9.01,2.12-16.59-32.79c-4.08-8.03-7-14.24-9.48-20.77l-.2.05c.37,6.91.42,13.8-.03,23l-1.34,37-9.01,2.12Z"/>
      </g>
    </g>
    <path d="m659.9,534.24c6.83-.3,13.5-2.39,19.23-6.14s10.49-8.66,14.49-14.29c7.76-10.91,10.96-24.41,14.7-37.06,2.06-6.97,4.47-13.82,7.3-20.51l-.92,2.19c5.87-13.84,13.35-27.16,22.51-39.1l-1.43,1.86c3.29-4.26,6.91-8.28,11.15-11.6l-1.86,1.43c2.44-1.87,5.04-3.48,7.87-4.7l-2.19.92c2.3-.96,4.68-1.63,7.14-1.98l-2.44.33c2.62-.34,5.25-.31,7.87.03l-2.44-.33c3.2.46,6.28,1.35,9.26,2.59l-2.19-.92c3.66,1.57,7.06,3.62,10.23,6.03l-1.86-1.43c7.09,5.47,12.8,12.41,18.43,19.3,1.4,1.71,4.37,2.69,6.49,2.69,2.25,0,4.94-1,6.49-2.69s2.8-4.04,2.69-6.49c-.11-2.57-1.07-4.51-2.69-6.49-8.04-9.83-16.61-19.97-28.21-25.71-6.44-3.19-13.51-5.29-20.76-5.18-6.86.11-13.65,2.17-19.48,5.77-10.8,6.65-18.48,17.33-25.26,27.8-7.12,11-12.96,22.74-17.77,34.92-2.54,6.43-4.64,12.99-6.56,19.62s-3.87,13.6-6.6,20.13l.92-2.19c-1.93,4.57-4.25,8.95-7.26,12.9l1.43-1.86c-2.26,2.92-4.82,5.58-7.73,7.86l1.86-1.43c-2.37,1.83-4.93,3.37-7.69,4.54l2.19-.92c-2.18.89-4.42,1.52-6.75,1.87l2.44-.33c-.87.11-1.73.19-2.61.23-2.42.11-4.75.95-6.49,2.69-1.59,1.59-2.79,4.2-2.69,6.49.21,4.79,4.04,9.4,9.18,9.18h0Z"/>
  </g>
</svg>