<?xml version="1.0" encoding="UTF-8"?>
<svg id="Layer_1" data-name="Layer 1" xmlns="http://www.w3.org/2000/svg" viewBox="0 0 1024 1024">
  <defs>
    <style>
      .cls-1 {
        stroke-width: 6.12px;
      }

      .cls-1, .cls-2, .cls-3, .cls-4, .cls-5 {
        fill: none;
        stroke: #000;
      }

      .cls-1, .cls-4 {
        stroke-linecap: round;
        stroke-linejoin: round;
      }

      .cls-2, .cls-3, .cls-5 {
        stroke-miterlimit: 10;
      }

      .cls-2, .cls-4 {
        stroke-width: 4.59px;
      }

      .cls-3 {
        stroke-width: 16.48px;
      }

      .cls-5 {
        stroke-width: 9.18px;
      }
    </style>
  </defs>
  <circle class="cls-3" cx="512" cy="512" r="383.3"/>
  <g>
    <rect class="cls-5" x="221.73" y="640.29" width="587.93" height="66.44"/>
    <polygon class="cls-5" points="794.23 366.25 229.12 366.25 229.12 318.8 511.67 265.11 794.23 318.8 794.23 366.25"/>
    <g>
      <rect class="cls-2" x="274.64" y="368.26" width="58.84" height="271.35"/>
      <polyline class="cls-4" points="279.45 633.57 328.45 614.11 276.1 587 330.46 560.42 276.86 530.91 329.12 500.68 276.86 469.51 327.78 438.27 275.34 410.39 331.13 382.56 274.64 368.26"/>
      <polyline class="cls-4" points="327.56 635.31 278.57 615.84 330.91 588.74 276.55 562.15 330.16 532.64 277.9 502.42 330.16 471.24 279.24 440 331.67 412.12 275.88 384.29 332.38 369.99"/>
    </g>
    <g>
      <rect class="cls-2" x="705.52" y="368.26" width="58.84" height="271.35"/>
      <polyline class="cls-4" points="710.34 633.57 759.33 614.11 706.98 587 761.34 560.42 707.74 530.91 760 500.68 707.74 469.51 758.66 438.27 706.23 410.39 762.02 382.56 705.52 368.26"/>
      <polyline class="cls-4" points="758.45 635.31 709.45 615.84 761.8 588.74 707.44 562.15 761.04 532.64 708.78 502.42 761.04 471.24 710.12 440 762.56 412.12 706.77 384.29 763.26 369.99"/>
    </g>
    <g>
      <g>
        <line class="cls-1" x1="391.31" y1="367.18" x2="391.31" y2="404.63"/>
        <path class="cls-1" d="m384.37,388.77c-7.87-2.67-16.41,1.54-19.08,9.41-2.67,7.87,1.54,16.41,9.41,19.08l42.74,14.51,9.67-28.49-42.74-14.51Z"/>
      </g>
      <circle class="cls-1" cx="390.87" cy="404.71" r="5.7"/>
    </g>
    <g>
      <g>
        <line class="cls-1" x1="648.4" y1="370.66" x2="648.4" y2="408.11"/>
        <path class="cls-1" d="m655.34,392.25c7.87-2.67,16.41,1.54,19.08,9.41,2.67,7.87-1.54,16.41-9.41,19.08l-42.74,14.51-9.67-28.49,42.74-14.51Z"/>
      </g>
      <circle class="cls-1" cx="648.85" cy="408.19" r="5.7"/>
    </g>
    <g>
      <path class="cls-1" d="m439.19,584.41c0-8.63-2.6-16.64-7.05-23.32v-44.63c0-4.43-3.62-8.05-8.05-8.05h-53.02c-4.43,0-8.05,3.62-8.05,8.05v43.2c-5.06,6.95-8.05,15.5-8.05,24.76s2.99,17.81,8.05,24.76v19.37c0,4.43,3.62,8.05,8.05,8.05h53.02c4.43,0,8.05-3.62,8.05-8.05v-20.81c4.45-6.68,7.05-14.69,7.05-23.32Z"/>
      <circle class="cls-1" cx="397.07" cy="586.09" r="30.37"/>
      <rect class="cls-1" x="369.72" y="516.46" width="55.71" height="28.19" rx="8.05" ry="8.05"/>
    </g>
    <g>
      <path class="cls-1" d="m680.13,584.41c0-8.63-2.6-16.64-7.05-23.32v-44.63c0-4.43-3.62-8.05-8.05-8.05h-53.02c-4.43,0-8.05,3.62-8.05,8.05v43.2c-5.06,6.95-8.05,15.5-8.05,24.76s2.99,17.81,8.05,24.76v19.37c0,4.43,3.62,8.05,8.05,8.05h53.02c4.43,0,8.05-3.62,8.05-8.05v-20.81c4.45-6.68,7.05-14.69,7.05-23.32Z"/>
      <circle class="cls-1" cx="638.02" cy="586.09" r="30.37"/>
      <rect class="cls-1" x="610.67" y="516.46" width="55.71" height="28.19" rx="8.05" ry="8.05"/>
    </g>
    <line class="cls-1" x1="508.65" y1="482.9" x2="508.65" y2="636.59"/>
    <path d="m529.12,469.14c0-4.45-3.61-8.05-8.05-8.05s-8.05,3.61-8.05,8.05c0,.89.15,1.73.41,2.53-.45,1.27-.75,2.17-.75,2.17l-19.46,18.12,2.68,3.36,21.48-18.12h6.04l.54-.54c3.02-1.16,5.16-4.08,5.16-7.51Z"/>
  </g>
</svg>