<?xml version="1.0" encoding="UTF-8"?>
<svg id="Capa_2" data-name="Capa 2" xmlns="http://www.w3.org/2000/svg" xmlns:xlink="http://www.w3.org/1999/xlink" viewBox="0 0 57.88 57.33">
  <defs>
    <style>
      .cls-1 {
        fill: url(#linear-gradient-2);
      }

      .cls-2 {
        fill: url(#linear-gradient-6);
      }

      .cls-3 {
        fill: url(#linear-gradient-5);
      }

      .cls-4 {
        fill: url(#linear-gradient-7);
      }

      .cls-5 {
        fill: url(#linear-gradient-9);
      }

      .cls-6 {
        fill: url(#linear-gradient-3);
      }

      .cls-7 {
        fill: url(#linear-gradient);
      }

      .cls-8 {
        fill: url(#linear-gradient-4);
      }

      .cls-9 {
        fill: url(#linear-gradient-8);
      }
    </style>
    <linearGradient id="linear-gradient" x1="0" y1="6.89" x2="15.8" y2="6.89" gradientUnits="userSpaceOnUse">
      <stop offset="0" stop-color="#ffffff"/>
      <stop offset=".82" stop-color="#ffffff"/>
    </linearGradient>
    <linearGradient id="linear-gradient-2" x1="21.42" x2="37.23" xlink:href="#linear-gradient"/>
    <linearGradient id="linear-gradient-3" x1="41.72" x2="57.53" xlink:href="#linear-gradient"/>
    <linearGradient id="linear-gradient-4" x1=".35" y1="28.66" x2="16.15" y2="28.66" xlink:href="#linear-gradient"/>
    <linearGradient id="linear-gradient-5" x1="21.77" y1="28.66" x2="37.57" y2="28.66" xlink:href="#linear-gradient"/>
    <linearGradient id="linear-gradient-6" x1="42.07" y1="28.66" x2="57.88" y2="28.66" xlink:href="#linear-gradient"/>
    <linearGradient id="linear-gradient-7" x1=".35" y1="50.44" x2="16.15" y2="50.44" xlink:href="#linear-gradient"/>
    <linearGradient id="linear-gradient-8" x1="21.77" y1="50.44" x2="37.57" y2="50.44" xlink:href="#linear-gradient"/>
    <linearGradient id="linear-gradient-9" x1="42.07" y1="50.44" x2="57.88" y2="50.44" xlink:href="#linear-gradient"/>
  </defs>
  <g id="Layer_1" data-name="Layer 1">
    <g>
      <path class="cls-7" d="m15.8,6.89C15.8,3.25,12.84.28,9.07.02l-.46-.02s-.04,0-.05,0-.04,0-.05,0h-1.2s-.04,0-.05,0-.04,0-.06,0h-.3C3.05.2,0,3.2,0,6.89s3.05,6.69,6.89,6.87h0s.3.01.3.01c.02,0,.04,0,.06,0s.04,0,.05,0h1.2s.04,0,.05,0,.04,0,.05,0h.46v-.02c3.76-.25,6.73-3.22,6.73-6.86Z"/>
      <path class="cls-1" d="m37.23,6.89c0-3.64-2.97-6.61-6.73-6.86l-.46-.02s-.04,0-.05,0-.04,0-.05,0h-1.2s-.04,0-.05,0-.04,0-.06,0h-.3c-3.84.19-6.89,3.2-6.89,6.88s3.05,6.69,6.89,6.87h0s.3.01.3.01c.02,0,.04,0,.06,0s.04,0,.05,0h1.2s.04,0,.05,0,.04,0,.05,0h.46v-.02c3.76-.25,6.73-3.22,6.73-6.86Z"/>
      <path class="cls-6" d="m57.53,6.89c0-3.64-2.97-6.61-6.73-6.86l-.46-.02s-.04,0-.05,0-.04,0-.05,0h-1.2s-.04,0-.05,0-.04,0-.06,0h-.3c-3.84.19-6.89,3.2-6.89,6.88s3.05,6.69,6.89,6.87h0s.3.01.3.01c.02,0,.04,0,.06,0s.04,0,.05,0h1.2s.04,0,.05,0,.04,0,.05,0h.46v-.02c3.76-.25,6.73-3.22,6.73-6.86Z"/>
      <path class="cls-8" d="m16.15,28.66c0-3.64-2.97-6.61-6.73-6.86l-.46-.02s-.04,0-.05,0-.04,0-.05,0h-1.2s-.04,0-.05,0-.04,0-.06,0h-.3c-3.84.19-6.89,3.2-6.89,6.88s3.05,6.69,6.89,6.87h0s.3.01.3.01c.02,0,.04,0,.06,0s.04,0,.05,0h1.2s.04,0,.05,0,.04,0,.05,0h.46v-.02c3.76-.25,6.73-3.22,6.73-6.86Z"/>
      <path class="cls-3" d="m37.57,28.66c0-3.64-2.97-6.61-6.73-6.86l-.46-.02s-.04,0-.05,0-.04,0-.05,0h-1.2s-.04,0-.05,0-.04,0-.06,0h-.3c-3.84.19-6.89,3.2-6.89,6.88s3.05,6.69,6.89,6.87h0s.3.01.3.01c.02,0,.04,0,.06,0s.04,0,.05,0h1.2s.04,0,.05,0,.04,0,.05,0h.46v-.02c3.76-.25,6.73-3.22,6.73-6.86Z"/>
      <path class="cls-2" d="m57.88,28.66c0-3.64-2.97-6.61-6.73-6.86l-.46-.02s-.04,0-.05,0-.04,0-.05,0h-1.2s-.04,0-.05,0-.04,0-.06,0h-.3c-3.84.19-6.89,3.2-6.89,6.88s3.05,6.69,6.89,6.87h0s.3.01.3.01c.02,0,.04,0,.06,0s.04,0,.05,0h1.2s.04,0,.05,0,.04,0,.05,0h.46v-.02c3.76-.25,6.73-3.22,6.73-6.86Z"/>
      <path class="cls-4" d="m16.15,50.44c0-3.64-2.97-6.61-6.73-6.86l-.46-.02s-.04,0-.05,0-.04,0-.05,0h-1.2s-.04,0-.05,0-.04,0-.06,0h-.3c-3.84.19-6.89,3.2-6.89,6.88s3.05,6.69,6.89,6.87h0s.3.01.3.01c.02,0,.04,0,.06,0s.04,0,.05,0h1.2s.04,0,.05,0,.04,0,.05,0h.46v-.02c3.76-.25,6.73-3.22,6.73-6.86Z"/>
      <path class="cls-9" d="m37.57,50.44c0-3.64-2.97-6.61-6.73-6.86l-.46-.02s-.04,0-.05,0-.04,0-.05,0h-1.2s-.04,0-.05,0-.04,0-.06,0h-.3c-3.84.19-6.89,3.2-6.89,6.88s3.05,6.69,6.89,6.87h0s.3.01.3.01c.02,0,.04,0,.06,0s.04,0,.05,0h1.2s.04,0,.05,0,.04,0,.05,0h.46v-.02c3.76-.25,6.73-3.22,6.73-6.86Z"/>
      <path class="cls-5" d="m57.88,50.44c0-3.64-2.97-6.61-6.73-6.86l-.46-.02s-.04,0-.05,0-.04,0-.05,0h-1.2s-.04,0-.05,0-.04,0-.06,0h-.3c-3.84.19-6.89,3.2-6.89,6.88s3.05,6.69,6.89,6.87h0s.3.01.3.01c.02,0,.04,0,.06,0s.04,0,.05,0h1.2s.04,0,.05,0,.04,0,.05,0h.46v-.02c3.76-.25,6.73-3.22,6.73-6.86Z"/>
    </g>
  </g>
</svg>